<?xml version="1.0" encoding="UTF-8"?>
<svg version="1.1" xmlns="http://www.w3.org/2000/svg" width="512" height="512">
<path d="M0,0 L430,0 L442,4 L452,10 L457,14 L465,25 L470,37 L471,41 L471,471 L467,483 L461,493 L457,498 L446,506 L434,511 L430,512 L0,512 L-12,508 L-22,502 L-27,498 L-35,487 L-40,475 L-41,471 L-41,41 L-37,29 L-31,19 L-21,9 L-7,2 Z M62,106 L62,407 L202,407 L202,372 L115,372 L115,269 L185,269 L185,234 L115,234 L115,141 L199,141 L199,106 Z M221,106 L221,141 L313,141 L290,195 L267,249 L244,303 L221,357 L215,371 L215,407 L365,407 L365,372 L270,372 L283,341 L306,287 L321,252 L344,198 L367,144 L368,142 L368,106 Z " fill="#8800FE" transform="translate(41,0)"/>
<path d="M0,0 L137,0 L137,35 L53,35 L53,128 L123,128 L123,163 L53,163 L53,266 L140,266 L140,301 L0,301 Z " fill="#FEFEFE" transform="translate(103,106)"/>
<path d="M0,0 L147,0 L147,36 L125,87 L102,141 L79,195 L56,249 L49,266 L144,266 L144,301 L-6,301 L-6,265 L15,216 L38,162 L61,108 L84,54 L92,35 L0,35 Z " fill="#FEFDFE" transform="translate(262,106)"/>
<path d="M0,0 L41,0 L37,2 L25,7 L17,13 L10,20 L3,34 L1,41 L0,41 Z " fill="#000000" transform="translate(0,0)"/>
<path d="M0,0 L1,0 L1,41 L-40,41 L-36,39 L-24,34 L-16,28 L-13,27 L-11,23 L-5,14 L-1,4 Z " fill="#000000" transform="translate(511,471)"/>
<path d="M0,0 L2,4 L7,16 L13,24 L14,27 L18,29 L27,35 L37,39 L41,41 L0,41 Z " fill="#000000" transform="translate(0,471)"/>
<path d="M0,0 L41,0 L41,41 L39,37 L34,25 L28,17 L27,14 L23,12 L14,6 L4,2 Z " fill="#000000" transform="translate(471,0)"/>
</svg>
